<svg width="214" height="214" viewBox="0 0 214 214" fill="none" xmlns="http://www.w3.org/2000/svg">
<circle cx="3" cy="3" r="3" fill="#C4C4C4"/>
<circle cx="16" cy="3" r="3" fill="#C4C4C4"/>
<circle cx="29" cy="3" r="3" fill="#C4C4C4"/>
<circle cx="42" cy="3" r="3" fill="#C4C4C4"/>
<circle cx="55" cy="3" r="3" fill="#C4C4C4"/>
<circle cx="68" cy="3" r="3" fill="#C4C4C4"/>
<circle cx="81" cy="3" r="3" fill="#C4C4C4"/>
<circle cx="94" cy="3" r="3" fill="#C4C4C4"/>
<circle cx="107" cy="3" r="3" fill="#C4C4C4"/>
<circle cx="120" cy="3" r="3" fill="#C4C4C4"/>
<circle cx="133" cy="3" r="3" fill="#C4C4C4"/>
<circle cx="146" cy="3" r="3" fill="#C4C4C4"/>
<circle cx="159" cy="3" r="3" fill="#C4C4C4"/>
<circle cx="172" cy="3" r="3" fill="#C4C4C4"/>
<circle cx="185" cy="3" r="3" fill="#C4C4C4"/>
<circle cx="198" cy="3" r="3" fill="#C4C4C4"/>
<circle cx="211" cy="3" r="3" fill="#C4C4C4"/>
<circle cx="3" cy="19" r="3" fill="#C4C4C4"/>
<circle cx="16" cy="19" r="3" fill="#C4C4C4"/>
<circle cx="29" cy="19" r="3" fill="#C4C4C4"/>
<circle cx="42" cy="19" r="3" fill="#C4C4C4"/>
<circle cx="55" cy="19" r="3" fill="#C4C4C4"/>
<circle cx="68" cy="19" r="3" fill="#C4C4C4"/>
<circle cx="81" cy="19" r="3" fill="#C4C4C4"/>
<circle cx="94" cy="19" r="3" fill="#C4C4C4"/>
<circle cx="107" cy="19" r="3" fill="#C4C4C4"/>
<circle cx="120" cy="19" r="3" fill="#C4C4C4"/>
<circle cx="133" cy="19" r="3" fill="#C4C4C4"/>
<circle cx="146" cy="19" r="3" fill="#C4C4C4"/>
<circle cx="159" cy="19" r="3" fill="#C4C4C4"/>
<circle cx="172" cy="19" r="3" fill="#C4C4C4"/>
<circle cx="185" cy="19" r="3" fill="#C4C4C4"/>
<circle cx="198" cy="19" r="3" fill="#C4C4C4"/>
<circle cx="211" cy="19" r="3" fill="#C4C4C4"/>
<circle cx="3" cy="35" r="3" fill="#C4C4C4"/>
<circle cx="16" cy="35" r="3" fill="#C4C4C4"/>
<circle cx="29" cy="35" r="3" fill="#C4C4C4"/>
<circle cx="42" cy="35" r="3" fill="#C4C4C4"/>
<circle cx="55" cy="35" r="3" fill="#C4C4C4"/>
<circle cx="68" cy="35" r="3" fill="#C4C4C4"/>
<circle cx="81" cy="35" r="3" fill="#C4C4C4"/>
<circle cx="94" cy="35" r="3" fill="#C4C4C4"/>
<circle cx="107" cy="35" r="3" fill="#C4C4C4"/>
<circle cx="120" cy="35" r="3" fill="#C4C4C4"/>
<circle cx="133" cy="35" r="3" fill="#C4C4C4"/>
<circle cx="146" cy="35" r="3" fill="#C4C4C4"/>
<circle cx="159" cy="35" r="3" fill="#C4C4C4"/>
<circle cx="172" cy="35" r="3" fill="#C4C4C4"/>
<circle cx="185" cy="35" r="3" fill="#C4C4C4"/>
<circle cx="198" cy="35" r="3" fill="#C4C4C4"/>
<circle cx="211" cy="35" r="3" fill="#C4C4C4"/>
<circle cx="3" cy="51" r="3" fill="#C4C4C4"/>
<circle cx="16" cy="51" r="3" fill="#C4C4C4"/>
<circle cx="29" cy="51" r="3" fill="#C4C4C4"/>
<circle cx="42" cy="51" r="3" fill="#C4C4C4"/>
<circle cx="55" cy="51" r="3" fill="#C4C4C4"/>
<circle cx="68" cy="51" r="3" fill="#C4C4C4"/>
<circle cx="81" cy="51" r="3" fill="#C4C4C4"/>
<circle cx="94" cy="51" r="3" fill="#C4C4C4"/>
<circle cx="107" cy="51" r="3" fill="#C4C4C4"/>
<circle cx="120" cy="51" r="3" fill="#C4C4C4"/>
<circle cx="133" cy="51" r="3" fill="#C4C4C4"/>
<circle cx="146" cy="51" r="3" fill="#C4C4C4"/>
<circle cx="159" cy="51" r="3" fill="#C4C4C4"/>
<circle cx="172" cy="51" r="3" fill="#C4C4C4"/>
<circle cx="185" cy="51" r="3" fill="#C4C4C4"/>
<circle cx="198" cy="51" r="3" fill="#C4C4C4"/>
<circle cx="211" cy="51" r="3" fill="#C4C4C4"/>
<circle cx="3" cy="67" r="3" fill="#C4C4C4"/>
<circle cx="16" cy="67" r="3" fill="#C4C4C4"/>
<circle cx="29" cy="67" r="3" fill="#C4C4C4"/>
<circle cx="42" cy="67" r="3" fill="#C4C4C4"/>
<circle cx="55" cy="67" r="3" fill="#C4C4C4"/>
<circle cx="68" cy="67" r="3" fill="#C4C4C4"/>
<circle cx="81" cy="67" r="3" fill="#C4C4C4"/>
<circle cx="94" cy="67" r="3" fill="#C4C4C4"/>
<circle cx="107" cy="67" r="3" fill="#C4C4C4"/>
<circle cx="120" cy="67" r="3" fill="#C4C4C4"/>
<circle cx="133" cy="67" r="3" fill="#C4C4C4"/>
<circle cx="146" cy="67" r="3" fill="#C4C4C4"/>
<circle cx="159" cy="67" r="3" fill="#C4C4C4"/>
<circle cx="172" cy="67" r="3" fill="#C4C4C4"/>
<circle cx="185" cy="67" r="3" fill="#C4C4C4"/>
<circle cx="198" cy="67" r="3" fill="#C4C4C4"/>
<circle cx="211" cy="67" r="3" fill="#C4C4C4"/>
<circle cx="3" cy="83" r="3" fill="#C4C4C4"/>
<circle cx="16" cy="83" r="3" fill="#C4C4C4"/>
<circle cx="29" cy="83" r="3" fill="#C4C4C4"/>
<circle cx="42" cy="83" r="3" fill="#C4C4C4"/>
<circle cx="55" cy="83" r="3" fill="#C4C4C4"/>
<circle cx="68" cy="83" r="3" fill="#C4C4C4"/>
<circle cx="81" cy="83" r="3" fill="#C4C4C4"/>
<circle cx="94" cy="83" r="3" fill="#C4C4C4"/>
<circle cx="107" cy="83" r="3" fill="#C4C4C4"/>
<circle cx="120" cy="83" r="3" fill="#C4C4C4"/>
<circle cx="133" cy="83" r="3" fill="#C4C4C4"/>
<circle cx="146" cy="83" r="3" fill="#C4C4C4"/>
<circle cx="159" cy="83" r="3" fill="#C4C4C4"/>
<circle cx="172" cy="83" r="3" fill="#C4C4C4"/>
<circle cx="185" cy="83" r="3" fill="#C4C4C4"/>
<circle cx="198" cy="83" r="3" fill="#C4C4C4"/>
<circle cx="211" cy="83" r="3" fill="#C4C4C4"/>
<circle cx="3" cy="99" r="3" fill="#C4C4C4"/>
<circle cx="16" cy="99" r="3" fill="#C4C4C4"/>
<circle cx="29" cy="99" r="3" fill="#C4C4C4"/>
<circle cx="42" cy="99" r="3" fill="#C4C4C4"/>
<circle cx="55" cy="99" r="3" fill="#C4C4C4"/>
<circle cx="68" cy="99" r="3" fill="#C4C4C4"/>
<circle cx="81" cy="99" r="3" fill="#C4C4C4"/>
<circle cx="94" cy="99" r="3" fill="#C4C4C4"/>
<circle cx="107" cy="99" r="3" fill="#C4C4C4"/>
<circle cx="120" cy="99" r="3" fill="#C4C4C4"/>
<circle cx="133" cy="99" r="3" fill="#C4C4C4"/>
<circle cx="146" cy="99" r="3" fill="#C4C4C4"/>
<circle cx="159" cy="99" r="3" fill="#C4C4C4"/>
<circle cx="172" cy="99" r="3" fill="#C4C4C4"/>
<circle cx="185" cy="99" r="3" fill="#C4C4C4"/>
<circle cx="198" cy="99" r="3" fill="#C4C4C4"/>
<circle cx="211" cy="99" r="3" fill="#C4C4C4"/>
<circle cx="3" cy="115" r="3" fill="#C4C4C4"/>
<circle cx="16" cy="115" r="3" fill="#C4C4C4"/>
<circle cx="29" cy="115" r="3" fill="#C4C4C4"/>
<circle cx="42" cy="115" r="3" fill="#C4C4C4"/>
<circle cx="55" cy="115" r="3" fill="#C4C4C4"/>
<circle cx="68" cy="115" r="3" fill="#C4C4C4"/>
<circle cx="81" cy="115" r="3" fill="#C4C4C4"/>
<circle cx="94" cy="115" r="3" fill="#C4C4C4"/>
<circle cx="107" cy="115" r="3" fill="#C4C4C4"/>
<circle cx="120" cy="115" r="3" fill="#C4C4C4"/>
<circle cx="133" cy="115" r="3" fill="#C4C4C4"/>
<circle cx="146" cy="115" r="3" fill="#C4C4C4"/>
<circle cx="159" cy="115" r="3" fill="#C4C4C4"/>
<circle cx="172" cy="115" r="3" fill="#C4C4C4"/>
<circle cx="185" cy="115" r="3" fill="#C4C4C4"/>
<circle cx="198" cy="115" r="3" fill="#C4C4C4"/>
<circle cx="211" cy="115" r="3" fill="#C4C4C4"/>
<circle cx="3" cy="131" r="3" fill="#C4C4C4"/>
<circle cx="16" cy="131" r="3" fill="#C4C4C4"/>
<circle cx="29" cy="131" r="3" fill="#C4C4C4"/>
<circle cx="42" cy="131" r="3" fill="#C4C4C4"/>
<circle cx="55" cy="131" r="3" fill="#C4C4C4"/>
<circle cx="68" cy="131" r="3" fill="#C4C4C4"/>
<circle cx="81" cy="131" r="3" fill="#C4C4C4"/>
<circle cx="94" cy="131" r="3" fill="#C4C4C4"/>
<circle cx="107" cy="131" r="3" fill="#C4C4C4"/>
<circle cx="120" cy="131" r="3" fill="#C4C4C4"/>
<circle cx="133" cy="131" r="3" fill="#C4C4C4"/>
<circle cx="146" cy="131" r="3" fill="#C4C4C4"/>
<circle cx="159" cy="131" r="3" fill="#C4C4C4"/>
<circle cx="172" cy="131" r="3" fill="#C4C4C4"/>
<circle cx="185" cy="131" r="3" fill="#C4C4C4"/>
<circle cx="198" cy="131" r="3" fill="#C4C4C4"/>
<circle cx="211" cy="131" r="3" fill="#C4C4C4"/>
<circle cx="3" cy="147" r="3" fill="#C4C4C4"/>
<circle cx="16" cy="147" r="3" fill="#C4C4C4"/>
<circle cx="29" cy="147" r="3" fill="#C4C4C4"/>
<circle cx="42" cy="147" r="3" fill="#C4C4C4"/>
<circle cx="55" cy="147" r="3" fill="#C4C4C4"/>
<circle cx="68" cy="147" r="3" fill="#C4C4C4"/>
<circle cx="81" cy="147" r="3" fill="#C4C4C4"/>
<circle cx="94" cy="147" r="3" fill="#C4C4C4"/>
<circle cx="107" cy="147" r="3" fill="#C4C4C4"/>
<circle cx="120" cy="147" r="3" fill="#C4C4C4"/>
<circle cx="133" cy="147" r="3" fill="#C4C4C4"/>
<circle cx="146" cy="147" r="3" fill="#C4C4C4"/>
<circle cx="159" cy="147" r="3" fill="#C4C4C4"/>
<circle cx="172" cy="147" r="3" fill="#C4C4C4"/>
<circle cx="185" cy="147" r="3" fill="#C4C4C4"/>
<circle cx="198" cy="147" r="3" fill="#C4C4C4"/>
<circle cx="211" cy="147" r="3" fill="#C4C4C4"/>
<circle cx="3" cy="163" r="3" fill="#C4C4C4"/>
<circle cx="16" cy="163" r="3" fill="#C4C4C4"/>
<circle cx="29" cy="163" r="3" fill="#C4C4C4"/>
<circle cx="42" cy="163" r="3" fill="#C4C4C4"/>
<circle cx="55" cy="163" r="3" fill="#C4C4C4"/>
<circle cx="68" cy="163" r="3" fill="#C4C4C4"/>
<circle cx="81" cy="163" r="3" fill="#C4C4C4"/>
<circle cx="94" cy="163" r="3" fill="#C4C4C4"/>
<circle cx="107" cy="163" r="3" fill="#C4C4C4"/>
<circle cx="120" cy="163" r="3" fill="#C4C4C4"/>
<circle cx="133" cy="163" r="3" fill="#C4C4C4"/>
<circle cx="146" cy="163" r="3" fill="#C4C4C4"/>
<circle cx="159" cy="163" r="3" fill="#C4C4C4"/>
<circle cx="172" cy="163" r="3" fill="#C4C4C4"/>
<circle cx="185" cy="163" r="3" fill="#C4C4C4"/>
<circle cx="198" cy="163" r="3" fill="#C4C4C4"/>
<circle cx="211" cy="163" r="3" fill="#C4C4C4"/>
<circle cx="3" cy="179" r="3" fill="#C4C4C4"/>
<circle cx="16" cy="179" r="3" fill="#C4C4C4"/>
<circle cx="29" cy="179" r="3" fill="#C4C4C4"/>
<circle cx="42" cy="179" r="3" fill="#C4C4C4"/>
<circle cx="55" cy="179" r="3" fill="#C4C4C4"/>
<circle cx="68" cy="179" r="3" fill="#C4C4C4"/>
<circle cx="81" cy="179" r="3" fill="#C4C4C4"/>
<circle cx="94" cy="179" r="3" fill="#C4C4C4"/>
<circle cx="107" cy="179" r="3" fill="#C4C4C4"/>
<circle cx="120" cy="179" r="3" fill="#C4C4C4"/>
<circle cx="133" cy="179" r="3" fill="#C4C4C4"/>
<circle cx="146" cy="179" r="3" fill="#C4C4C4"/>
<circle cx="159" cy="179" r="3" fill="#C4C4C4"/>
<circle cx="172" cy="179" r="3" fill="#C4C4C4"/>
<circle cx="185" cy="179" r="3" fill="#C4C4C4"/>
<circle cx="198" cy="179" r="3" fill="#C4C4C4"/>
<circle cx="211" cy="179" r="3" fill="#C4C4C4"/>
<circle cx="3" cy="195" r="3" fill="#C4C4C4"/>
<circle cx="16" cy="195" r="3" fill="#C4C4C4"/>
<circle cx="29" cy="195" r="3" fill="#C4C4C4"/>
<circle cx="42" cy="195" r="3" fill="#C4C4C4"/>
<circle cx="55" cy="195" r="3" fill="#C4C4C4"/>
<circle cx="68" cy="195" r="3" fill="#C4C4C4"/>
<circle cx="81" cy="195" r="3" fill="#C4C4C4"/>
<circle cx="94" cy="195" r="3" fill="#C4C4C4"/>
<circle cx="107" cy="195" r="3" fill="#C4C4C4"/>
<circle cx="120" cy="195" r="3" fill="#C4C4C4"/>
<circle cx="133" cy="195" r="3" fill="#C4C4C4"/>
<circle cx="146" cy="195" r="3" fill="#C4C4C4"/>
<circle cx="159" cy="195" r="3" fill="#C4C4C4"/>
<circle cx="172" cy="195" r="3" fill="#C4C4C4"/>
<circle cx="185" cy="195" r="3" fill="#C4C4C4"/>
<circle cx="198" cy="195" r="3" fill="#C4C4C4"/>
<circle cx="211" cy="195" r="3" fill="#C4C4C4"/>
<circle cx="3" cy="211" r="3" fill="#C4C4C4"/>
<circle cx="16" cy="211" r="3" fill="#C4C4C4"/>
<circle cx="29" cy="211" r="3" fill="#C4C4C4"/>
<circle cx="42" cy="211" r="3" fill="#C4C4C4"/>
<circle cx="55" cy="211" r="3" fill="#C4C4C4"/>
<circle cx="68" cy="211" r="3" fill="#C4C4C4"/>
<circle cx="81" cy="211" r="3" fill="#C4C4C4"/>
<circle cx="94" cy="211" r="3" fill="#C4C4C4"/>
<circle cx="107" cy="211" r="3" fill="#C4C4C4"/>
<circle cx="120" cy="211" r="3" fill="#C4C4C4"/>
<circle cx="133" cy="211" r="3" fill="#C4C4C4"/>
<circle cx="146" cy="211" r="3" fill="#C4C4C4"/>
<circle cx="159" cy="211" r="3" fill="#C4C4C4"/>
<circle cx="172" cy="211" r="3" fill="#C4C4C4"/>
<circle cx="185" cy="211" r="3" fill="#C4C4C4"/>
<circle cx="198" cy="211" r="3" fill="#C4C4C4"/>
<circle cx="211" cy="211" r="3" fill="#C4C4C4"/>
</svg>
